<?xml version="1.0" encoding="UTF-8"?>
<svg id="Camada_1" data-name="Camada 1" xmlns="http://www.w3.org/2000/svg" version="1.1" viewBox="0 0 841.89 595.28">
  <defs>
    <style>
      .cls-1 {
        fill: #fff;
        stroke-width: 0px;
      }
    </style>
  </defs>
  <path class="cls-1" d="M311.92,86.05v218.51h218.51V86.05h-218.51ZM423.37,93.05h64.97l-8.4,8.75h-38.83v25.78h38.86l13.61,13.91-13.64,14.22h-38.83v25.79h38.86l10.09,10.31h-66.69v-98.76ZM318.92,144.58c7.52.84,24.18,3.82,43.17,14.28-3.88,2.41-7.82,5.17-11.76,8.35-14.27-6.48-25.94-8.7-31.41-9.44v-13.19ZM318.92,164.87c9.02,1.41,33.16,6.88,57.51,26.94h-57.51v-26.94ZM330.25,297.56h-11.33v-45.82c3.66-23.9,24.36-42.26,49.27-42.26,17.32,0,32.6,8.88,41.54,22.33h-54.81v21.92h-11.42v21.92h-13.25v21.91ZM416.37,297.56h-79.12v-14.91h79.12v14.91ZM416.37,275.65h-65.87v-14.92h65.87v14.92ZM416.37,253.73h-54.45v-14.92h54.45v14.92ZM416.37,229.2c-10.06-16.04-27.9-26.72-48.18-26.72s-39.43,11.48-49.27,28.5v-32.17h97.45v30.39ZM416.37,191.81h-29.32c-10.11-9.37-20.32-16.2-29.73-21.17,3.92-2.97,7.83-5.52,11.67-7.7,2.41-1.38,4.79-2.62,7.13-3.72,17.54-8.29,32.82-9.45,40.25-9.42v42.01ZM416.37,142.75c-8.84-.09-26.85,1.34-47.21,12.05-22.23-13.23-41.91-16.49-50.24-17.3v-44.45h97.45v49.7ZM504.08,249.77c-5.25,11.87-17.14,20.18-30.93,20.18s-25.67-8.31-30.92-20.18h61.85ZM440.01,242.77v-20.9h66.29v20.9h-66.29ZM523.43,297.56h-46.78v-20.76c16.19-1.38,29.72-12.26,34.96-27.03.73-2.05,1.3-4.17,1.69-6.36v-28.54h-80.29v28.54c.39,2.19.96,4.31,1.69,6.36,5.24,14.77,18.76,25.65,34.95,27.03v20.76h-46.28v-98.75h100.06v98.75ZM523.43,191.81h-23.57l-14.92-15.24v-2.07h-36.83v-11.79h36.83v-2.09l13.1-13.66h25.39v44.85ZM523.43,137.89h-23.57l-14.92-15.24v-2.07h-36.83v-11.78h36.83v-2.1l13.1-13.65h25.39v44.84Z"/>
  <path class="cls-1" d="M378.68,140.48c10.05,0,18.23-8.18,18.23-18.23s-8.18-18.23-18.23-18.23-18.23,8.18-18.23,18.23,8.18,18.23,18.23,18.23ZM378.68,111.02c6.19,0,11.23,5.04,11.23,11.23s-5.04,11.23-11.23,11.23-11.23-5.04-11.23-11.23,5.04-11.23,11.23-11.23Z"/>
  <path class="cls-1" d="M162.14,420.04c-11.14,0-20.16-10.61-20.16-23.69s9.02-23.69,20.16-23.69c7.66,0,14.33,5.01,17.73,12.41h20.43c-4.78-17.06-20.05-29.53-38.16-29.53-21.94,0-39.72,18.31-39.72,40.9s17.78,40.9,39.72,40.9c18.17,0,33.49-12.56,38.21-29.71h-20.48c-3.4,7.39-10.07,12.41-17.73,12.41Z"/>
  <polygon class="cls-1" points="233.08 438.84 299.26 438.84 299.26 423.05 248.87 423.05 248.87 406.12 290.99 406.12 290.99 390.33 248.87 390.33 248.87 374.91 299.26 374.91 299.26 359.12 233.08 359.12 233.08 438.84"/>
  <polygon class="cls-1" points="334.76 359.12 334.76 438.84 400.94 438.84 400.94 423.05 350.55 423.05 350.55 359.12 334.76 359.12"/>
  <path class="cls-1" d="M600.26,413.65h-.67l-21.57-46.55-3.7-7.98h-10.01l-3.7,7.98-33.23,71.74h17.4l4.36-9.4h40.36l4.36,9.4h17.4l-11-23.74v-1.45ZM556.45,413.65l12.87-27.76,12.86,27.76h-25.73Z"/>
  <polygon class="cls-1" points="449.46 359.12 433.66 359.12 433.66 438.84 499.85 438.84 499.85 423.05 449.46 423.05 449.46 359.12"/>
  <path class="cls-1" d="M719.47,383.23c0-6.66-2.7-12.69-7.07-17.05-4.36-4.36-10.39-7.06-17.05-7.06h-54.58v79.72h15.8v-31.49h23.5l18.23,31.49h21.17l-18.6-32.13c10.66-2.49,18.6-12.06,18.6-23.48ZM692.39,391.36h-35.82v-16.12h35.82c2.23,0,4.24.9,5.7,2.36s2.36,3.47,2.36,5.7c0,4.45-3.61,8.06-8.06,8.06Z"/>
  <polygon class="cls-1" points="324.7 501.81 317.25 484.33 311.13 484.33 321.69 508.8 327.28 508.8 337.88 484.33 332.25 484.33 324.7 501.81"/>
  <rect class="cls-1" x="355.95" y="484.33" width="5.66" height="24.47"/>
  <polygon class="cls-1" points="398.5 499.19 386.33 484.33 381.65 484.33 381.65 508.8 387.24 508.8 387.24 493.94 399.44 508.8 404.09 508.8 404.09 484.33 398.5 484.33 398.5 499.19"/>
  <polygon class="cls-1" points="441.68 493.98 430.57 493.98 430.57 484.33 424.9 484.33 424.9 508.8 430.57 508.8 430.57 498.77 441.68 498.77 441.68 508.8 447.35 508.8 447.35 484.33 441.68 484.33 441.68 493.98"/>
  <path class="cls-1" d="M478.82,483.91c-6.96,0-12.07,5.38-12.07,12.66s5.1,12.66,12.07,12.66,12.07-5.35,12.07-12.66-5.14-12.66-12.07-12.66ZM478.82,504.4c-3.94,0-6.9-3.18-6.9-7.83s2.96-7.83,6.9-7.83,6.9,3.18,6.9,7.83-2.96,7.83-6.9,7.83Z"/>
  <path class="cls-1" d="M516.61,491.25c0-1.54,1.29-2.8,4.65-2.8,2.17,0,4.51.63,6.78,1.92l1.75-4.3c-2.27-1.43-5.42-2.17-8.49-2.17-6.96,0-10.31,3.46-10.31,7.62,0,9.09,14.23,5.94,14.23,10.52,0,1.5-1.36,2.62-4.72,2.62-2.94,0-6.01-1.05-8.08-2.55l-1.92,4.26c2.17,1.68,6.08,2.83,9.96,2.83,6.99,0,10.38-3.5,10.38-7.59,0-8.98-14.23-5.87-14.23-10.38Z"/>
</svg>