<?xml version="1.0" encoding="UTF-8"?>
<svg id="Camada_1" data-name="Camada 1" xmlns="http://www.w3.org/2000/svg" version="1.1" viewBox="0 0 841.89 595.28">
  <defs>
    <style>
      .cls-1 {
        fill: #fff;
        stroke-width: 0px;
      }
    </style>
  </defs>
  <path class="cls-1" d="M187.79,355.21l107.5-107.5-19.55-19.55,19.55-19.55-107.5-107.5-88.26,88.26-19.24,19.24,19.55,19.55-19.55,19.55,107.5,107.5ZM96.68,208.61l11.05-11.05,8.18-8.18,71.88-71.88,71.88,71.88,8.2,8.18,11.05,11.05-11.36,11.36-8.19,8.19-71.58,71.58-71.57-71.58-8.2-8.19-11.35-11.36ZM108.03,236.36l79.76,79.76,79.76-79.78,11.36,11.36-91.13,91.12-91.12-91.12,11.35-11.35Z"/>
  <path class="cls-1" d="M187.79,277.63l68.71-68.71-68.71-68.71-68.71,68.71,8.2,8.18,60.51,60.53ZM187.79,156.58l52.34,52.34-52.34,52.33-52.33-52.33,52.33-52.34Z"/>
  <path class="cls-1" d="M216.17,208.62l-28.38-28.38-28.38,28.38,28.38,28.38,28.38-28.38ZM187.79,196.62l12,12-12,12-12-12,12-12Z"/>
  <path class="cls-1" d="M544.5,264.68l.23-46.16h-125.34v46.16h72.83c-.41,25.47-28.38,36.18-53.24,36.18-36.88,0-66.78-32.04-66.78-71.59s29.9-71.58,66.78-71.58c22.01,0,41.54,7.08,53.7,23.77l30.23-43.15c-17.22-21.89-44.99-36.09-87.95-36.09-67.78,0-122.72,55.74-122.72,124.49s54.94,124.5,122.72,124.5,99.87-33.11,109.53-86.52Z"/>
  <path class="cls-1" d="M726.92,250.51V103.11h-58.05l-106.17,147.4v50.34h106.17v52.36h58.05v-52.36h34.68v-50.34h-34.68ZM668.87,250.51h-48.11l48.11-66.8v66.8Z"/>
  <polygon class="cls-1" points="105.61 432.03 145.8 432.03 145.8 422.2 105.61 422.2 105.61 397.33 150.72 397.33 150.72 387.26 94.16 387.26 94.16 468.25 152.32 468.25 152.32 458.18 105.61 458.18 105.61 432.03"/>
  <path class="cls-1" d="M204.64,387.26h-33.77v80.99h33.77c25.76,0,43.28-16.43,43.28-40.49s-17.52-40.5-43.28-40.5ZM203.96,458.18h-21.64v-60.86h21.64c19.81,0,32.52,12.26,32.52,30.43s-12.71,30.43-32.52,30.43Z"/>
  <path class="cls-1" d="M321.41,432.84c0,17.94-8.24,26.03-22.67,26.03s-22.56-8.1-22.56-26.03v-45.59h-11.45v46.05c0,23.49,12.82,35.87,33.89,35.87s33.89-12.38,33.89-35.87v-46.05h-11.11v45.59Z"/>
  <path class="cls-1" d="M392.39,396.63c8.81,0,16.37,3.01,22.55,9.6l7.44-7.29c-7.33-8.33-18.09-12.61-30.46-12.61-24.39,0-42.47,17.47-42.47,41.42s18.09,41.42,42.36,41.42c12.48,0,23.24-4.4,30.57-12.73l-7.44-7.29c-6.18,6.6-13.74,9.72-22.55,9.72-18.09,0-31.49-13.19-31.49-31.12s13.39-31.13,31.49-31.13Z"/>
  <path class="cls-1" d="M460.96,387.26l-36.3,80.99h11.8l8.81-20.25h42.6l8.81,20.25h12.02l-36.41-80.99h-11.33ZM449.28,438.75l17.29-39.69,17.29,39.69h-34.57Z"/>
  <path class="cls-1" d="M555.87,396.63c8.81,0,16.37,3.01,22.55,9.6l7.44-7.29c-7.33-8.33-18.09-12.61-30.46-12.61-24.39,0-42.47,17.47-42.47,41.42,0,22.1,15.46,38.76,36.98,41.07l-2.52,9.95h3.09c4.58,0,6.53,1.85,6.53,4.51,0,2.9-2.06,4.63-6.41,4.63-2.86,0-5.38-.58-7.78-1.97l-2.4,5.67c2.86,1.73,6.18,2.54,10.19,2.54,8.59,0,14.2-4.05,14.2-10.53,0-5.09-3.32-8.91-9.96-9.6l1.26-4.86c12.14-.24,22.56-4.63,29.77-12.73l-7.44-7.29c-6.18,6.6-13.74,9.72-22.55,9.72-18.09,0-31.49-13.19-31.49-31.12s13.39-31.13,31.49-31.13Z"/>
  <path class="cls-1" d="M622.95,372.56c4.24,0,7.9,7.75,15.23,7.75,6.64,0,10.99-5.55,11.22-13.77h-6.19c-.23,4.28-2.52,6.94-5.84,6.94-4.23,0-7.9-7.87-15.23-7.87-6.64,0-10.99,5.55-11.22,14.12h6.19c.23-4.51,2.52-7.17,5.84-7.17Z"/>
  <path class="cls-1" d="M624.44,387.26l-36.3,80.99h11.8l8.81-20.25h42.6l8.81,20.25h12.02l-36.41-80.99h-11.33ZM612.76,438.75l17.29-39.69,17.29,39.69h-34.57Z"/>
  <path class="cls-1" d="M719.12,386.33c-24.61,0-42.7,17.7-42.7,41.42s18.09,41.42,42.7,41.42,42.48-17.59,42.48-41.42-18.09-41.42-42.48-41.42ZM719.12,458.88c-17.97,0-31.25-13.19-31.25-31.12s13.28-31.13,31.25-31.13,31.03,13.19,31.03,31.13-13.28,31.12-31.03,31.12Z"/>
</svg>