<?xml version="1.0" encoding="UTF-8"?>
<svg id="Camada_1" data-name="Camada 1" xmlns="http://www.w3.org/2000/svg" version="1.1" viewBox="0 0 841.89 595.28">
  <defs>
    <style>
      .cls-1 {
        fill: #fff;
        stroke-width: 0px;
      }
    </style>
  </defs>
  <polygon class="cls-1" points="215.96 236.62 176.97 357.1 209.1 357.1 248.09 236.62 215.96 236.62"/>
  <path class="cls-1" d="M456.27,313.98h7.73c14.55,0,27.44-9.38,31.92-23.22l10.53-32.54c3.45-10.67-4.5-21.6-15.71-21.6h-82.61l-38.99,120.47h32.13l13.95-43.11h41.05ZM467.78,262.54c2.54,0,4.34,2.47,3.56,4.89l-4.62,14.27c-.98,3.04-3.81,5.1-7.01,5.1h-35.69l7.85-24.26h35.91Z"/>
  <path class="cls-1" d="M367.88,234.97c-15.89,1.32-22.6,12.33-22.6,12.33l-43.77,69.14s2.15-33.33,2.15-58.17-8.5-23.27-27.3-23.27-26.85,16.78-26.85,16.78l-33.55,105.32h29.52l27.43-85.18s.31,53.26,0,64.67-1.48,23.94,16.31,23.94,26.85-19.02,26.85-19.02l44.43-69.82-28.42,86.38h30.66s30.88-90.85,33.79-105.4c2.91-14.55-12.75-19.02-28.64-17.7Z"/>
  <path class="cls-1" d="M555.98,236.63c-14.33-.11-23.32,11.66-23.32,11.66l-76.58,108.81h34.01l17.16-25.6,45.3-.85,1.5,27.38h33.8s-6.42-108.45-7.7-113.16c-1.28-4.71-9.84-8.13-24.17-8.23ZM526.03,305.4l22.89-37.43,2.35,37.43h-25.24Z"/>
  <path class="cls-1" d="M769.25,244.86c-1.28-4.71-9.84-8.13-24.17-8.23-14.33-.11-23.32,11.66-23.32,11.66l-57.25,81.35h-37.57c-1.41,0-2.42-1.38-1.98-2.72l29.22-90.29h-32.13l-30.44,94.06c-4.22,13.04,5.5,26.41,19.21,26.41h68.65v-.42l16.88-25.19,45.3-.85,1.5,27.38h33.8s-6.42-108.45-7.7-113.16ZM715.13,305.4l22.89-37.43,2.35,37.43h-25.24Z"/>
  <path class="cls-1" d="M125.17,236.63c-16.63,0-31.69,6.74-42.59,17.64-10.9,10.9-17.64,25.96-17.64,42.59,0,33.27,26.97,60.24,60.24,60.24h46.57l37.73-120.47h-84.3ZM137.73,300.7c0,3.62-2.94,6.56-6.56,6.56s-6.56-2.93-6.56-6.56c0-.45.05-.89.13-1.32l-21.08-29.66,27.51,24.42,25.09-39.19-19.24,42.81c.45.88.7,1.88.7,2.93Z"/>
</svg>